<svg version="1.0" xmlns="http://www.w3.org/2000/svg"
 width="920.000000pt" height="920.000000pt" viewBox="0 0 920.000000 920.000000">
<g transform="translate(0.000000,920.000000) scale(0.100000,-0.100000)"
fill="#000000" stroke="none">
<path d="M2385 7718 c-157 -12 -351 -81 -493 -175 -176 -116 -328 -316 -405
-530 -60 -167 -57 -33 -57 -2412 0 -1916 2 -2187 15 -2264 75 -425 417 -770
845 -851 73 -14 328 -16 2314 -16 2139 0 2235 1 2321 19 363 75 658 330 785
680 63 173 60 42 60 2431 0 1902 -2 2188 -15 2257 -84 443 -415 767 -875 855
-64 13 -4347 18 -4495 6z m2033 -1355 c2 -17 -22 -240 -53 -495 -202 -1673
-265 -2188 -270 -2226 -12 -83 -7 -82 -329 -82 -245 0 -287 2 -300 16 -9 8
-16 19 -16 23 0 7 45 386 246 2061 47 393 90 721 96 728 8 9 80 12 317 10
l306 -3 3 -32z m1317 16 c14 -14 4 -108 -105 -975 -234 -1863 -250 -1980 -276
-2071 -92 -319 -315 -495 -674 -532 -190 -20 -552 -5 -597 25 -16 10 -23 24
-23 47 0 68 32 273 46 294 17 27 38 30 224 38 225 10 302 32 355 101 48 63 64
131 105 466 107 875 310 2547 310 2560 0 8 10 28 21 42 l22 28 288 -4 c244 -2
291 -5 304 -19z" fill="white"/>
</g>
</svg>
